<svg xmlns="http://www.w3.org/2000/svg" viewBox="0 0 64 64">
  <defs>
    <linearGradient id="neonGradient" x1="0%" y1="0%" x2="100%" y2="100%">
      <stop offset="0%" style="stop-color:#00ffff;stop-opacity:1" />
      <stop offset="50%" style="stop-color:#8000ff;stop-opacity:1" />
      <stop offset="100%" style="stop-color:#ff00ff;stop-opacity:1" />
    </linearGradient>
    <filter id="glow">
      <feGaussianBlur stdDeviation="2" result="coloredBlur"/>
      <feMerge>
        <feMergeNode in="coloredBlur"/>
        <feMergeNode in="SourceGraphic"/>
      </feMerge>
    </filter>
  </defs>
  
  <!-- Background -->
  <rect width="64" height="64" fill="#0a0a0f"/>
  
  <!-- AprilTag-inspired pattern -->
  <!-- Outer border -->
  <rect x="8" y="8" width="48" height="48" fill="none" stroke="url(#neonGradient)" stroke-width="2" filter="url(#glow)"/>
  
  <!-- Inner AprilTag pattern -->
  <!-- Creating a simplified 4x4 AprilTag pattern -->
  <!-- Row 1 -->
  <rect x="12" y="12" width="10" height="10" fill="#00ffff" opacity="0.8"/>
  <rect x="22" y="12" width="10" height="10" fill="#0a0a0f"/>
  <rect x="32" y="12" width="10" height="10" fill="#00ffff" opacity="0.8"/>
  <rect x="42" y="12" width="10" height="10" fill="#0a0a0f"/>
  
  <!-- Row 2 -->
  <rect x="12" y="22" width="10" height="10" fill="#0a0a0f"/>
  <rect x="22" y="22" width="10" height="10" fill="#8000ff" opacity="0.8"/>
  <rect x="32" y="22" width="10" height="10" fill="#8000ff" opacity="0.8"/>
  <rect x="42" y="22" width="10" height="10" fill="#00ffff" opacity="0.8"/>
  
  <!-- Row 3 -->
  <rect x="12" y="32" width="10" height="10" fill="#00ffff" opacity="0.8"/>
  <rect x="22" y="32" width="10" height="10" fill="#8000ff" opacity="0.8"/>
  <rect x="32" y="32" width="10" height="10" fill="#0a0a0f"/>
  <rect x="42" y="32" width="10" height="10" fill="#8000ff" opacity="0.8"/>
  
  <!-- Row 4 -->
  <rect x="12" y="42" width="10" height="10" fill="#0a0a0f"/>
  <rect x="22" y="42" width="10" height="10" fill="#00ffff" opacity="0.8"/>
  <rect x="32" y="42" width="10" height="10" fill="#8000ff" opacity="0.8"/>
  <rect x="42" y="42" width="10" height="10" fill="#0a0a0f"/>
  
  <!-- Center highlight -->
  <circle cx="32" cy="32" r="4" fill="#ff00ff" opacity="0.6" filter="url(#glow)"/>
</svg>